# xmcd
#
# Track frame offsets: 
#        150
#        10687
#        23137
#        39575
#        52112
#        65612
#        77175
#        98425
#        110087
#        119512
#        134225
#        150050
#        161162
#        174450
#        186412
#        198562
#        208862
#        225000
#
# Disc length: 3169 seconds
#
# Revision: 2
# Processed by: cddbd v1.5.1PL2 Copyright (c) Steve Scherf et al.
# Submitted via: ExactAudioCopy v0.95a5
#
DISCID=f40c5f12
DTITLE=Various Artist - Sweet Soul Music [CD2)
DYEAR=1900
DGENRE=Soul
TTITLE0=Arthur Conley - Sweet Soul Music
TTITLE1=James Brown - I Got You (I Feel Good)
TTITLE2=Ike and Tina Turner - Come Together
TTITLE3=Aretha Franklin - Chain Of Fools
TTITLE4=Four Tops - Reach Out I ll Be There
TTITLE5=Sam and Dave - Soul Sister, Brown Sugar
TTITLE6=Joe Tex - Ode To Billy Joe
TTITLE7=Otis Redding - Lovey Dovey
TTITLE8=Solomon Burke - Home In Your Heart
TTITLE9=Edwin Starr - 25 Miles
TTITLE10=Rare Earth - Midnight Lady
TTITLE11=Percy Sledge - Baby Help Me
TTITLE12=Wilson Picket - Sugar, Sugar
TTITLE13=James Brown - I Got The Feeling
TTITLE14=Otis Redding - Dock Of The Bay
TTITLE15=Aretha Franklin - Think
TTITLE16=Ike and Tina Turner - Ooh Poo Pah Doo
TTITLE17=Sam and Dave - I Thank You
EXTD=
EXTT0=Arthur Conley\n
EXTT1=James Brown\n
EXTT2=Ike and Tina Turner\n
EXTT3=Aretha Franklin\n
EXTT4=The Four Tops\n
EXTT5=Sam and Dave\n
EXTT6=Joe Tex\n
EXTT7=Carla Thomas and Otis Redding\n
EXTT8=Solomon Burke\n
EXTT9=Edwin Starr\n
EXTT10=Rare Earth\n
EXTT11=Percy Sledge\n
EXTT12=Wilson Pickett\n
EXTT13=James Brown\n
EXTT14=Otis Redding\n
EXTT15=Aretha Franklin\n
EXTT16=Ike and Tina Turner\n
EXTT17=Sam and Dave\n
PLAYORDER=
